<?xml version="1.0" encoding="UTF-8"?>
<svg width="256px" height="256px" viewBox="0 0 256 256" version="1.1" xmlns="http://www.w3.org/2000/svg" xmlns:xlink="http://www.w3.org/1999/xlink">
    <title>logo256opsRobot</title>
    <g id="logo256opsRobot" stroke="none" fill="none" fill-rule="evenodd" stroke-width="1">
        <g id="编组" transform="translate(10, 6)">
            <path d="M150.339406,59.0018838 C140.359768,58.8666295 135.230791,66.0351057 135.005487,73.9069041 C134.80669,80.8860243 140.015186,89.3664669 149.716507,88.987755 C157.959979,89.082433 165.156451,82.1168382 164.997413,74.2179889 C164.838375,65.981004 158.185283,59.1100872 150.326153,59.0154092 L150.339406,59.0018838 Z" id="路径" fill="#FFA600" fill-rule="nonzero"></path>
            <path d="M86.3303316,59.0022591 C78.9563977,58.8545695 70.7259632,65.9705227 71.0070024,73.8114975 C71.3148073,82.4043466 77.2567795,88.8355571 85.7548704,88.8892625 C93.1957184,90.0573529 100.864074,81.759883 100.997903,74.5902245 C101.145114,66.2524756 93.5169061,59.1499487 86.3437144,59.0022591 L86.3303316,59.0022591 Z" id="路径" fill="#FFA600" fill-rule="nonzero"></path>
            <path d="M150.350466,179.639497 L118.645367,162.164674 C118.256666,161.945109 117.777267,161.945109 117.388565,162.164674 L85.6705104,179.639497 C84.7764965,180.130291 84.7764965,181.421852 85.6705104,181.899729 L116.922123,198.845013 C117.297868,199.051662 117.76431,199.051662 118.153012,198.845013 L150.311596,181.899729 C151.218566,181.421852 151.231523,180.130291 150.337509,179.626582 L150.350466,179.639497 Z" id="路径" fill="#3E75FF" fill-rule="nonzero"></path>
            <path d="M113.332074,204.456973 L81.90102,187.15845 C81.0404231,186.690572 80,187.31441 80,188.302154 L80,222.106405 C80,222.574284 80.2568946,223.01617 80.667926,223.250109 L112.09898,240.834558 C112.959577,241.315434 114,240.691595 114,239.690854 L114,205.600677 C114,205.119802 113.743105,204.690913 113.332074,204.456973 L113.332074,204.456973 Z" id="路径" fill="#3E75FF" fill-rule="nonzero"></path>
            <path d="M153.111825,187.156873 L121.680771,203.977197 C121.256895,204.198175 121,204.640131 121,205.121083 L121,239.697638 C121,240.68554 122.053268,241.309478 122.90102,240.841524 L154.332074,223.254277 C154.743105,223.0203 155,222.591343 155,222.110391 L155,188.300759 C155,187.325856 153.972422,186.68892 153.111825,187.156873 Z" id="路径" fill="#3E75FF" fill-rule="nonzero"></path>
            <path d="M234.974035,54.1045759 C235.064912,49.1375672 229.118949,42.5235348 224.341407,42.9125955 C218.720006,43.3664997 215.214744,41.3693213 213.033692,36.7005925 C212.501411,35.5593476 211.43685,33.7956056 210.735798,32.7451417 C200.908082,17.8830216 186.458613,7.97494161 168.633707,2.5799661 C162.142481,0.608725054 155.339676,-0.104552958 148.562836,0.0121652618 C138.877927,0.180758246 129.193018,-0.078615576 119.508109,0.1029461 C105.05864,0.362319922 90.6091716,0.738411965 76.1726853,1.20528485 C69.2400561,1.42575259 62.7877775,3.70824223 56.5042709,6.45760475 C41.2628725,13.0975746 29.4098941,23.6151831 21.3477916,38.1141798 C19.3614764,41.6935385 17.1284947,43.1200946 13.2337592,42.7180651 C6.5088492,42.0307245 0.160430298,48.6966317 0.0825355878,55.6089441 C-0.0602713815,67.9292007 0.00464087726,80.2494573 0.108500491,92.5697138 C0.160430298,98.1073449 5.45727061,105.214188 10.182883,104.980751 C16.4404248,104.669503 19.8288447,106.653712 22.853756,112.398843 C27.0990177,120.465368 33.2916472,127.338775 41.0681358,132.552189 C42.8337492,133.732339 43.1972578,135.340457 41.2109427,136.974512 C32.5646299,144.068386 26.1772636,152.964908 21.0491952,162.795176 C16.8039334,170.939514 13.6491977,179.680412 13.02604,188.693652 C11.7018299,201.454845 13.0000751,214.423536 15.2720041,222.334437 C16.8818282,227.936912 19.491301,235.173441 21.5814757,238.623113 C24.1520011,244.316369 32.4088404,246.767451 38.8870839,243.0195 C47.4035722,238.091397 56.0888324,233.461574 64.81304,228.896595 C68.0716354,227.197696 73.7839142,224.798489 74.6667209,221.309911 C75.0951418,219.611012 74.6667209,192.415667 74.6667209,192.415667 C74.6667209,191.053954 73.2256687,190.159115 72.0053183,190.781612 C65.072689,194.296127 51.9733952,200.819379 46.6635725,203.555772 C43.7814682,205.034203 43.0674333,203.854052 43.0025211,201.89578 C42.8597141,197.577206 44.1579593,179.421038 55.9070781,165.868756 C65.3972503,154.910212 77.1593516,147.881181 92.2709255,147.907119 C110.121797,147.933056 127.972668,147.673682 145.823539,148.075712 C150.614064,148.179461 155.612308,149.644923 160.065289,151.538352 C171.424934,156.388643 180.162124,164.403294 185.991245,175.387775 C190.62598,184.128673 193.456154,202.764682 191.599664,204.009677 C190.04177,205.060141 169.062128,193.997847 162.363182,190.431457 C161.441428,189.938647 160.324938,190.613019 160.324938,191.663483 L160.324938,218.002894 C160.324938,218.002894 160.247043,221.206161 160.753358,222.217719 C162.051604,224.811457 164.115813,225.77114 166.011251,226.76973 C176.553002,232.346267 187.055806,237.96171 197.597557,243.538247 C204.02387,246.936044 210.891587,244.00512 213.812639,238.908424 C219.460005,229.052219 222.575794,218.184456 223.017197,206.84982 C223.302811,199.574384 222.92632,192.156293 221.705969,184.984607 C220.615443,178.526199 218.486321,172.093728 215.902813,166.050318 C211.33299,155.377085 204.400361,146.260095 195.754048,138.439974 C191.106331,134.251087 192.729137,133.887964 200.58352,127.701898 C206.062115,123.396293 210.255447,117.741943 213.228428,111.439159 C215.487375,106.640744 218.0579,104.928876 223.017197,105.136376 C229.781054,105.408718 234.89614,99.9229617 234.922105,93.023618 C234.974035,80.0549269 234.779298,67.0862358 235,54.1175446 L234.974035,54.1045759 Z M191.638611,80.301332 C189.717208,93.2311171 182.771597,103.372634 171.424934,110.220102 C164.024936,114.681332 155.884939,116.471012 147.355468,116.535855 C137.618629,116.613667 127.881791,116.561792 118.144952,116.561792 L118.144952,116.522886 C107.979692,116.522886 97.8014499,116.652573 87.6361902,116.496949 C70.6551433,116.224606 57.140411,109.299325 48.6369051,94.411268 C46.0404148,89.8722261 44.63831,84.334595 43.9632225,79.0952437 C42.6649773,69.1612263 44.3656785,59.603301 50.2077818,51.0828709 C55.2579555,43.7166544 61.593392,38.0882424 70.0579505,34.8590383 C77.0684745,32.1874879 84.2997001,31.2926483 91.7256625,31.3056169 C108.382148,31.3315543 125.051616,31.2018674 141.708102,31.3704604 C147.615117,31.4353039 153.703887,31.4223352 159.390201,32.7581104 C168.374058,34.872007 176.111599,39.6963601 182.161421,46.8680463 C190.366331,56.5815959 193.482119,68.0070128 191.651594,80.3143007 L191.638611,80.301332 Z" id="形状" fill="#3E75FF" fill-rule="nonzero"></path>
        </g>
    </g>
</svg>